# xmcd CD database file
#
# Track frame offsets:
#	150
#	25257
#	45427
#	66075
#	93207
#	117375
#	140247
#	165705
#	187600
#	213760
#
# Disc length: 3105 seconds
#
# Revision: 0
# Processed by: cddbd v1.5.1PL2 Copyright (c) Steve Scherf et al.
# Submitted via: CDex 1.51
#
DISCID=800c1f0a
DTITLE=Various Artist - Bossanova Jawa
DYEAR=1900
DGENRE=Jazz
TTITLE0=Tangise Ati
TTITLE1=layang kangen
TTITLE2=gambang semarang
TTITLE3=iklas
TTITLE4=kasmaran
TTITLE5=linso tresno
TTITLE6=mawar biru
TTITLE7=bengawan solo
TTITLE8=ketaman asmoro
TTITLE9=getuk
EXTD=
EXTT0=
EXTT1=
EXTT2=
EXTT3=
EXTT4=
EXTT5=
EXTT6=
EXTT7=
EXTT8=
EXTT9=
PLAYORDER=
